<svg id="visual" viewBox="0 0 900 600" width="900" height="600" xmlns="http://www.w3.org/2000/svg" xmlns:xlink="http://www.w3.org/1999/xlink" version="1.1"><rect x="0" y="0" width="900" height="600" fill="#fafafa"></rect><defs><linearGradient id="grad1_0" x1="33.3%" y1="0%" x2="100%" y2="100%"><stop offset="20%" stop-color="#fafafa" stop-opacity="1"></stop><stop offset="80%" stop-color="#fafafa" stop-opacity="1"></stop></linearGradient></defs><defs><linearGradient id="grad2_0" x1="0%" y1="0%" x2="66.7%" y2="100%"><stop offset="20%" stop-color="#fafafa" stop-opacity="1"></stop><stop offset="80%" stop-color="#fafafa" stop-opacity="1"></stop></linearGradient></defs><g transform="translate(900, 0)"><path d="M0 486.7C-65.6 482.9 -131.3 479.1 -186.3 449.7C-241.3 420.3 -285.6 365.4 -311.8 311.8C-338.1 258.2 -346.2 206 -372.3 154.2C-398.5 102.5 -442.6 51.2 -486.7 0L0 0Z" fill="#901b20"></path></g><g transform="translate(0, 600)"><path d="M0 -486.7C70.7 -487.2 141.4 -487.6 186.3 -449.7C231.1 -411.8 250.2 -335.4 285.7 -285.7C321.1 -235.9 373 -212.7 409.3 -169.5C445.5 -126.3 466.1 -63.2 486.7 0L0 0Z" fill="#901b20"></path></g></svg>